<svg width="24" height="24" viewBox="0 0 24 24" fill="none" xmlns="http://www.w3.org/2000/svg">
<path d="M12.0103 20.5999C11.6495 20.5999 11.1084 20.45 11.0683 20.0402V18.9908L10.7576 18.9209C9.96599 18.751 9.25451 18.3512 8.62319 17.7416C7.99187 17.1319 7.56097 16.2924 7.33049 15.243C7.26035 14.9132 7.31045 14.6234 7.49083 14.4035C7.6712 14.1736 7.98185 14.0337 8.2925 14.0337C8.64323 14.0337 8.90378 14.2036 9.03405 14.5034C9.26453 15.4529 9.65535 16.1825 10.2065 16.6522C10.7677 17.1219 11.4391 17.3618 12.2107 17.3618C12.9823 17.3618 13.6537 17.1919 14.1046 16.8721C14.5957 16.5123 14.8462 15.9626 14.8462 15.233C14.8462 14.5934 14.5756 14.0537 14.0345 13.6539C13.5635 13.2941 12.8119 12.9444 11.7297 12.5746C10.3167 12.0849 9.29459 11.5252 8.70336 10.9155C8.14219 10.3359 7.8616 9.56632 7.8616 8.63686C7.8616 7.88729 8.1021 7.17771 8.58311 6.52808C9.05409 5.88846 9.81568 5.43872 10.8278 5.19886L11.1384 5.1289V3.9196C11.1485 3.53982 11.6796 3.3999 12.0303 3.3999C12.4812 3.3999 12.9522 3.59979 12.9923 3.96957V5.16887L13.343 5.21884C14.0345 5.30879 14.6458 5.59862 15.1568 6.08834C15.6779 6.57805 16.0687 7.23767 16.3193 8.05719C16.4094 8.34703 16.3794 8.59688 16.2291 8.79676C16.0387 9.05661 15.6479 9.23651 15.2771 9.23651C15.1167 9.23651 14.7359 9.19653 14.6858 8.85673C14.4854 8.19711 14.1547 7.6974 13.6938 7.32762C13.2228 6.94784 12.6215 6.75795 11.9101 6.75795C11.2888 6.75795 10.7777 6.89787 10.3769 7.1877C9.94595 7.49752 9.71547 7.94726 9.71547 8.48694C9.71547 9.09659 9.98604 9.5963 10.5372 9.98607C11.0082 10.3259 11.8499 10.6957 13.1126 11.1154C14.5656 11.6151 15.5376 12.2248 15.9986 12.9144C16.4696 13.614 16.7 14.3935 16.7 15.233C16.7 16.4323 16.3694 17.3118 15.708 17.8515C14.9965 18.4212 14.1748 18.8009 13.2629 18.9708L12.9322 19.0308V20.0602C12.9121 20.44 12.371 20.5799 12.0203 20.5799L12.0103 20.5999Z" fill="#606882"/>
</svg>