<svg width="25" height="24" viewBox="0 0 25 24" fill="none" xmlns="http://www.w3.org/2000/svg">
<path d="M4.5 6.75H6.5C6.5 6.75 6.59 6.73 6.64 6.72C6.93 7.47 7.65 8 8.5 8C9.35 8 10.07 7.47 10.36 6.72C10.41 6.72 10.45 6.75 10.5 6.75H20.5C20.91 6.75 21.25 6.41 21.25 6C21.25 5.59 20.91 5.25 20.5 5.25H10.5C10.5 5.25 10.41 5.27 10.36 5.28C10.07 4.53 9.35 4 8.5 4C7.65 4 6.93 4.53 6.64 5.28C6.59 5.28 6.55 5.25 6.5 5.25H4.5C4.09 5.25 3.75 5.59 3.75 6C3.75 6.41 4.09 6.75 4.5 6.75ZM8.5 5.5C8.78 5.5 9 5.72 9 6C9 6.28 8.78 6.5 8.5 6.5C8.22 6.5 8 6.28 8 6C8 5.72 8.22 5.5 8.5 5.5Z" fill="#022A9A"/>
<path d="M20.5 11.25H18.5C18.5 11.25 18.41 11.27 18.36 11.28C18.07 10.53 17.35 10 16.5 10C15.65 10 14.93 10.53 14.64 11.28C14.59 11.28 14.55 11.25 14.5 11.25H4.5C4.09 11.25 3.75 11.59 3.75 12C3.75 12.41 4.09 12.75 4.5 12.75H14.5C14.5 12.75 14.59 12.73 14.64 12.72C14.93 13.47 15.65 14 16.5 14C17.35 14 18.07 13.47 18.36 12.72C18.41 12.72 18.45 12.75 18.5 12.75H20.5C20.91 12.75 21.25 12.41 21.25 12C21.25 11.59 20.91 11.25 20.5 11.25ZM16.5 12.5C16.22 12.5 16 12.28 16 12C16 11.72 16.22 11.5 16.5 11.5C16.78 11.5 17 11.72 17 12C17 12.28 16.78 12.5 16.5 12.5Z" fill="#022A9A"/>
<path d="M20.5 17.25H10.5C10.5 17.25 10.41 17.27 10.36 17.28C10.07 16.53 9.35 16 8.5 16C7.65 16 6.93 16.53 6.64 17.28C6.59 17.28 6.55 17.25 6.5 17.25H4.5C4.09 17.25 3.75 17.59 3.75 18C3.75 18.41 4.09 18.75 4.5 18.75H6.5C6.5 18.75 6.59 18.73 6.64 18.72C6.93 19.47 7.65 20 8.5 20C9.35 20 10.07 19.47 10.36 18.72C10.41 18.72 10.45 18.75 10.5 18.75H20.5C20.91 18.75 21.25 18.41 21.25 18C21.25 17.59 20.91 17.25 20.5 17.25ZM8.5 18.5C8.22 18.5 8 18.28 8 18C8 17.72 8.22 17.5 8.5 17.5C8.78 17.5 9 17.72 9 18C9 18.28 8.78 18.5 8.5 18.5Z" fill="#022A9A"/>
</svg>
